<svg width="90" height="90" xmlns="http://www.w3.org/2000/svg"><path d="M25.663 54.239l-9.797 3.934c-.172.093-.317.186-.474.275 2.396 4.04 4.583 7.786 4.891 16.16h-1.797c-1.708-5.437-4.017-10.436-6.907-12.536-.25.448-.484.929-.719 1.47L7.257 74.344c-.755 3.239.833 4.457 2.281 4.91 6.182 1.38 23.699 4.15 35.693 4.15 11.991 0 29.5-2.77 35.684-4.15 1.453-.453 3.041-1.671 2.285-4.91l-3.604-10.802a13.799 13.799 0 00-.719-1.47c-2.891 2.1-5.193 7.1-6.9 12.537H70.18c.307-8.375 2.5-12.12 4.895-16.161-.16-.09-.307-.183-.484-.275l-9.797-3.934h-.254c-.434.475-.865.953-1.324 1.396-4.781 4.657-11.156 7.324-17.995 7.324-6.844 0-13.207-2.667-17.994-7.324-.459-.442-.891-.921-1.322-1.396z"/><path fill-rule="evenodd" clip-rule="evenodd" d="M29.36 25.765c.605-.063 1.355.136 2.167.479 3.667 1.538 8.345 2.417 13.698 2.454 5.36-.036 10.038-.916 13.704-2.454 2.172-.91 3.869-.791 3.656 2.439-.734 11.18-7.631 14.495-17.36 14.583-9.723-.088-16.618-3.402-17.353-14.583-.135-2.016.48-2.824 1.488-2.918zm15.866-21.73c-16.052 0-28.057 11.673-22.589 31.309 3.876 13.91 11.735 21.77 22.589 21.77s18.719-7.86 22.594-21.77c5.469-19.636-6.537-31.308-22.594-31.308z"/></svg>