<svg width="90" height="90" xmlns="http://www.w3.org/2000/svg"><path d="M41.818 6.262c-1.486.178-3.685.772-4.934 1.337-5.587 2.556-8.351 7.846-8.173 15.663l.06 2.02-.476.15c-.535.177-1.426 1.069-1.813 1.812-.386.743-.475 3.626-.148 5.171.535 2.526 2.199 4.874 4.31 6.093.92.505.95.565 1.426 1.783 1.367 3.537 4.398 6.657 7.816 8.084 1.753.743 3.061.98 4.874.891 3.953-.208 7.787-2.585 10.224-6.3.772-1.16 1.723-3.18 1.723-3.626 0-.119.446-.446 1.01-.773 2.2-1.278 3.865-3.596 4.4-6.152.326-1.545.237-4.428-.15-5.171-.385-.773-1.277-1.635-1.812-1.813l-.476-.149.06-1.931c.178-5.974-1.308-10.283-4.518-13.315-3.15-3.002-8.113-4.398-13.403-3.774z"/><path d="M29.692 48.91c-5.32 2.02-8.708 3.655-11.204 5.409-1.784 1.278-4.22 3.685-5.26 5.23-2.11 3.121-3.597 7.728-3.983 12.037-.238 2.645-.297 2.586 3.06 3.715 12.959 4.458 42.203 5.112 59.322 1.308 2.08-.476 6.063-1.754 6.925-2.23.772-.415.832-.713.683-2.733-.327-4.161-1.872-8.916-3.893-11.888-2.021-3.032-5.023-5.528-9.035-7.609-2.972-1.515-9.808-4.22-10.016-3.952-.06.089-.386 1.159-.683 2.407-1.189 4.844-2.734 9.63-4.458 13.76-1.456 3.507-5.112 10.432-6.212 11.829-.772.95-1.129.654-2.942-2.497-4.22-7.4-7.222-15.068-9.362-24.103-.237-.95-.416-1.456-.564-1.486-.12 0-1.19.357-2.378.803z"/><path d="M40.986 55.924c-.12.297.772 4.636.98 4.874.149.178.684.208 2.26.208 1.574 0 2.139-.06 2.258-.208.238-.268 1.1-4.607.98-4.874-.118-.327-6.36-.327-6.478 0zM42.085 62.284c-.119.119-.446 1.278-.713 2.556l-.535 2.348.951 1.812c.505 1.01 1.278 2.408 1.664 3.121l.743 1.278.416-.654c.743-1.189 2.972-5.409 2.972-5.617-.03-.594-1.07-4.785-1.248-4.874-.356-.238-4.042-.178-4.25.03z"/></svg>