<svg width="90" height="90" xmlns="http://www.w3.org/2000/svg"><g fill-rule="evenodd"><path d="M44.494 6.777c-21.129 0-38.256 17.128-38.256 38.256S23.365 83.29 44.494 83.29c21.128 0 38.256-17.128 38.256-38.256S65.622 6.777 44.494 6.777zm0 13.333c-13.765 0-24.923 11.158-24.923 24.923 0 13.765 11.158 24.923 24.923 24.923 13.765 0 24.923-11.158 24.923-24.923 0-13.765-11.158-24.923-24.923-24.923" fill="#fff"/><path d="M44.494 22.947c-12.198 0-22.087 9.888-22.087 22.086 0 12.198 9.889 22.087 22.087 22.087S66.58 57.23 66.58 45.033s-9.888-22.086-22.086-22.086zM40.51 37.444a8.506 8.506 0 00-.595.345 2.009 2.009 0 01-2.123.043l-6.732-3.887a1.994 1.994 0 01-1.01-1.527 1.994 1.994 0 01.611-1.727 19.905 19.905 0 018.328-4.812 1.994 1.994 0 011.8.334c.532.4.818.973.818 1.638v7.778c0 .782-.405 1.452-1.097 1.815zm-4.58 7.245a8.182 8.182 0 000 .688 2.007 2.007 0 01-1.024 1.858l-6.737 3.89a1.993 1.993 0 01-1.829.111 1.993 1.993 0 01-1.189-1.395 19.955 19.955 0 01-.584-4.808c0-1.658.203-3.269.584-4.808a1.994 1.994 0 011.19-1.395 1.993 1.993 0 011.828.111l6.737 3.89a2.007 2.007 0 011.025 1.858zm3.985 7.589c.194.122.392.237.595.344a2.007 2.007 0 011.097 1.815v7.778c0 .666-.286 1.238-.817 1.639-.532.4-1.162.517-1.801.334a19.907 19.907 0 01-8.327-4.813 1.994 1.994 0 01-.613-1.727c.081-.66.435-1.194 1.011-1.527l6.732-3.887a2.008 2.008 0 012.123.044zm8.561.344c.203-.107.4-.222.594-.344a2.009 2.009 0 012.124-.044l6.732 3.887c.577.333.93.867 1.01 1.528a1.994 1.994 0 01-.612 1.726 19.905 19.905 0 01-8.327 4.813c-.64.183-1.27.066-1.801-.334a1.993 1.993 0 01-.817-1.639v-7.778c0-.781.405-1.451 1.097-1.815zm4.58-7.245a8.182 8.182 0 000-.688 2.007 2.007 0 011.023-1.858l6.737-3.89a1.994 1.994 0 011.83-.111c.612.261 1.028.748 1.188 1.395.382 1.54.584 3.15.584 4.808s-.202 3.269-.584 4.808a1.993 1.993 0 01-1.189 1.395 1.993 1.993 0 01-1.829-.111l-6.737-3.89a2.007 2.007 0 01-1.024-1.858zm-3.986-7.589a8.92 8.92 0 00-.594-.344 2.007 2.007 0 01-1.097-1.815V27.85c0-.665.285-1.238.817-1.638a1.994 1.994 0 011.8-.334c3.171.91 6.018 2.584 8.328 4.812.48.462.693 1.066.612 1.727a1.994 1.994 0 01-1.01 1.528l-6.732 3.886a2.007 2.007 0 01-2.124-.044" fill="#fff"/><path fill="#000" d="M44.494 41.352a3.682 3.682 0 100 7.364 3.682 3.682 0 000-7.364M44.675 37.362l.311.18.312.18a.355.355 0 01.181.314v.719a.354.354 0 01-.18.314l-.313.18-.311.18a.356.356 0 01-.362 0l-.312-.18-.311-.18a.354.354 0 01-.182-.314v-.72c0-.133.066-.247.182-.314l.311-.18.312-.18a.355.355 0 01.362 0M37.94 41.04l.312-.18.312-.18a.352.352 0 01.362 0l.312.18.311.18a.355.355 0 01.182.315v.719a.356.356 0 01-.182.314l-.311.18-.312.18a.355.355 0 01-.362 0l-.312-.18-.311-.18a.354.354 0 01-.181-.314v-.72c0-.133.065-.247.18-.314M37.76 48.712v-.72c0-.133.065-.247.18-.314l.312-.18.312-.18a.355.355 0 01.362 0l.312.18.311.18a.356.356 0 01.182.314v.72a.355.355 0 01-.182.314l-.311.18-.312.18a.352.352 0 01-.362 0l-.312-.18-.311-.18a.354.354 0 01-.181-.314M44.313 52.704l-.312-.18-.311-.18a.354.354 0 01-.182-.313v-.72c0-.133.066-.247.182-.314l.311-.18.312-.18a.356.356 0 01.362 0l.311.18.312.18a.354.354 0 01.181.314v.72a.354.354 0 01-.18.314l-.313.18-.311.18a.355.355 0 01-.362 0M51.047 49.026l-.312.18-.311.18a.352.352 0 01-.362 0l-.312-.18-.312-.18a.356.356 0 01-.181-.314v-.72c0-.133.066-.247.18-.314l.313-.18.312-.18a.355.355 0 01.362 0l.311.18.312.18a.354.354 0 01.18.314v.72a.354.354 0 01-.18.314M51.228 41.355v.719a.354.354 0 01-.181.314l-.312.18-.311.18a.355.355 0 01-.362 0l-.312-.18-.312-.18a.356.356 0 01-.181-.314v-.72c0-.133.066-.247.18-.314l.313-.18.312-.18a.352.352 0 01.362 0l.311.18.312.18a.354.354 0 01.18.315"/><path d="M44.494 41.991a3.042 3.042 0 100 6.084 3.042 3.042 0 000-6.084" fill="#fff"/></g></svg>